<svg width="200" height="56" viewBox="0 0 200 56" fill="none" xmlns="http://www.w3.org/2000/svg">
<path fill-rule="evenodd" clip-rule="evenodd" d="M25.86 0L22.12 8.56C21.46 10.12 20.8 11.66 20.12 13.22C19.14 15.46 18.34 17.7 18.82 20.18C19.14 21.86 19.98 23.22 21.4 24.5C23.1286 26.0895 25.8047 26.0802 25.8593 26.08L25.86 26.08C25.86 26.08 28.56 26.08 30.32 24.5C31.74 23.2 32.56 21.86 32.9 20.18C33.38 17.7 32.58 15.46 31.6 13.22C30.92 11.6801 30.2601 10.1202 29.6001 8.56025L29.6 8.56L25.86 0ZM49.1398 2.83995L54.4598 16.6199L55.2998 10.7799L56.4198 2.83995H64.7198L60.9398 29.2999H52.6598L47.2398 15.9399L46.5598 20.6999L45.3398 29.2999H37.0598L40.8198 2.83995H49.1398ZM79.6603 29.2999H63.6403L67.4003 2.83995H83.4203L82.4003 10.0799H75.1003L74.7403 12.6399H81.4203L80.4403 19.5199H73.7603L73.4003 22.0799H80.7003L79.6603 29.2999ZM125.58 29.2999H134.3L135.7 19.5199H142.4L143.36 12.6399H136.68L137.04 10.0799H144.36L145.38 2.83995H129.36L125.58 29.2999ZM152.8 29.2999H144.08L147.86 2.83995H156.56L152.8 29.2999ZM171.04 2.83995H162.12L154.5 29.2999H162.88L166.42 15.9199L168.02 29.2999H173.84L178.96 15.9199V29.2999H186.76V2.83995H177.62L172.6 15.9399L171.04 2.83995ZM189.4 3.79995V2.83995H193.64V3.79995H192.12V7.83995H190.92V3.79995H189.4ZM197.12 5.79995L198.24 2.83995H200V7.83995H198.92V3.79995L197.44 7.83995H196.8L195.32 3.79995V7.83995H194.24V2.83995H196L197.12 5.79995ZM113.72 11.2H114.02L114.42 19.16H110.54L113.72 11.2ZM114.92 29.32H123.66L120.12 2.86001H110.54L97.3 29.32H106.46L107.76 26.04H114.74L114.9 29.32H114.92ZM89.4401 10.0799L84.6601 10.1999L85.7001 2.83995H103.92L102.86 10.1999L98.1201 10.0799L95.3801 29.2999H86.7201L89.4401 10.0799ZM5.36011 28.6801L11.1601 15.3801L16.9601 28.6801C17.9801 31.0801 19.0201 33.5001 20.0601 35.9001C21.5801 39.3801 22.8401 42.8601 22.0801 46.7201C21.5601 49.3201 20.2801 51.4201 18.0801 53.4401C15.3601 55.9201 11.1601 55.9001 11.1601 55.9001H11.1596C11.1047 55.9002 6.94858 55.9096 4.24011 53.4401C2.02011 51.4201 0.760113 49.3001 0.240113 46.7201C-0.519887 42.8601 0.740113 39.3801 2.26011 35.9001C3.30011 33.5001 4.34011 31.1001 5.36011 28.6801Z" fill="#E9E9E9"/>
</svg>
