<svg width="200" height="78" viewBox="0 0 200 78" fill="none" xmlns="http://www.w3.org/2000/svg">
<path fill-rule="evenodd" clip-rule="evenodd" d="M169.652 70.1941C171.761 71.4926 174.266 72.4792 177.863 72.4792H178.181C183.393 72.3909 186.882 69.414 189.885 66.1986C197.155 58.4162 200.786 48.8937 199.85 40.0778C198.313 25.6792 192.827 16.8368 179.621 7.47326C173.994 3.48933 167.157 0.909941 160.372 0.212092C152.493 -0.59176 145.541 0.945275 139.711 4.78786C133.58 8.83362 132.132 13.109 130.736 17.252L130.716 17.3105C130.255 18.667 129.818 19.9556 129.217 21.2271C128.404 22.9408 127.6 24.4071 126.885 25.6968L126.859 25.744C124.443 30.1363 122.692 33.3197 123.607 40.5902C124.271 45.8931 126.064 50.0265 128.463 53.2131C128.93 63.0255 133.324 70.6908 141.063 74.4046C145.01 76.2942 148.692 77.054 152.074 77.0547C159.437 77.0532 165.408 73.4748 169.652 70.1941ZM171.288 68.8806C172.037 68.2591 172.716 67.6703 173.322 67.1444L173.323 67.1435C173.825 66.704 174.283 66.3086 174.684 65.9791C175.315 66.0328 175.926 66.0571 176.52 66.0571V66.0394C183.163 66.0394 187.845 62.8593 190.689 60.0238C194.701 56.0258 197.339 50.3882 197.992 44.7681C197.463 51.6909 194.13 58.8166 188.481 64.8647C185.345 68.2126 182.394 70.4563 178.163 70.527C175.223 70.5638 173.103 69.8826 171.288 68.8806ZM197.426 36.5984C196.599 33.7594 195.152 32.0119 193.322 29.8131C191.891 28.0906 190.265 26.1295 188.401 23.0731L188.343 22.9773L188.342 22.976C187.914 22.2701 187.509 21.6035 187.12 20.9531C184.356 16.3596 182.35 13.0382 178.623 9.54898C173.72 4.95555 164.789 5.31772 159.498 10.3263C157.998 11.749 156.698 13.1467 155.436 14.5033L155.436 14.5035L155.32 14.6283L155.276 14.6756L155.275 14.6764C154.631 15.3688 153.981 16.0687 153.299 16.777C151.55 17.5227 149.863 18.1913 148.218 18.665C138.687 21.4211 133.793 25.1488 129.977 39.9273L129.97 39.9537C129.751 40.6113 129.589 41.294 129.486 41.9962C128.911 44.6516 128.572 47.2211 128.462 49.68C127.031 47.0942 126 44.0021 125.542 40.3428C124.703 33.6735 126.249 30.8733 128.589 26.6332C129.323 25.317 130.144 23.8241 130.983 22.0574C131.637 20.6617 132.123 19.2395 132.582 17.8703C133.934 13.8687 135.215 10.0791 140.789 6.4044C145.285 3.43633 150.523 1.94346 156.397 1.94346L156.406 1.9523C157.634 1.9523 158.897 2.01413 160.187 2.14664C166.653 2.80032 173.155 5.25604 178.508 9.05446C190.029 17.2244 195.43 24.9504 197.426 36.5984ZM130.645 55.7067C131.66 63.549 135.542 69.6056 141.911 72.6644C153.083 78.0216 162.101 73.4395 167.964 69.0494C167.519 68.7242 167.085 68.3925 166.653 68.0625C165.999 67.5589 165.319 67.0378 164.613 66.5608C161.59 64.4857 159.273 63.629 156.313 63.2492C155.338 63.4095 154.512 63.6211 153.73 63.8222C151.848 64.308 150.064 64.7674 147.211 64.2639C144.747 63.8277 142.308 62.8468 140.056 61.4382C136.818 60.3279 133.48 58.5031 130.645 55.7067ZM134.274 56.3576C132.867 55.3071 131.558 54.0575 130.397 52.5905C130.366 51.6546 130.373 50.698 130.418 49.7223C130.85 50.9081 131.411 52.0933 132.096 53.2573C132.74 54.3498 133.471 55.387 134.274 56.3576ZM141.07 59.801C138.166 57.9823 135.595 55.3759 133.775 52.2856C131.815 48.9649 130.984 45.4973 131.381 42.4768C131.526 41.7994 131.688 41.1159 131.866 40.4268C135.474 29.967 140.238 27.7079 144.845 25.5235L144.852 25.52C146.769 24.6102 148.571 23.7533 150.232 22.3576C151.843 21.0038 153.2 19.6893 154.443 18.4079C154.992 18.1719 155.546 17.9297 156.106 17.6845C160.735 15.6616 165.488 13.5858 170.408 13.5858C172.201 13.5858 174.021 13.8596 175.858 14.5133C181.361 16.4655 191.308 24.3715 189.559 40.2895C188.433 50.609 182.811 57.0283 174.109 63.965C170.913 63.5953 168.52 62.8593 166.397 62.1968L166.347 62.1814C164.664 61.6579 163.212 61.2065 161.786 61.1103C161.044 61.0661 160.364 61.0396 159.728 61.0396V61.0573C158.421 61.0573 157.318 61.1532 156.356 61.2952C154.258 61.0387 151.927 60.9998 149.032 60.9515L149.03 60.9515L148.059 60.9338C145.803 60.8949 143.417 60.5375 141.07 59.801ZM162.848 63.2229C163.752 63.4074 164.74 63.7131 165.823 64.0519C167.53 64.5863 169.57 65.219 172.106 65.6455L172.06 65.6859C171.337 66.3137 170.505 67.036 169.569 67.7954C168.983 67.3839 168.413 66.9489 167.837 66.5078C167.157 65.9866 166.459 65.4566 165.717 64.9442C164.711 64.2553 163.766 63.6891 162.848 63.2229ZM189.32 58.6634C186.814 61.1612 182.742 63.9587 176.989 64.1069C186.38 56.2572 190.492 49.4902 191.476 40.5015C191.908 36.5665 191.668 33.0837 190.969 30.0272C191.268 30.3931 191.555 30.7382 191.829 31.0675C194.223 33.956 195.671 35.7051 196.113 40.166C196.758 46.6498 194.09 53.911 189.32 58.6634ZM176.494 12.6847C177.805 13.1493 179.347 13.9202 180.937 15.0195C179.877 13.6286 178.712 12.3108 177.289 10.98C173.172 7.12859 165.328 7.49077 160.832 11.7574C159.742 12.7897 158.749 13.8174 157.801 14.8303C163.529 12.4157 169.854 10.3197 176.494 12.6847ZM148.766 20.5377C149.068 20.4505 149.37 20.3575 149.673 20.2593C149.446 20.4574 149.214 20.6563 148.977 20.8559C147.511 22.0926 145.815 22.8964 144.022 23.7445L144.005 23.7524C141.566 24.9131 138.96 26.1531 136.477 28.6145C139.407 24.0518 143.189 22.153 148.766 20.5377ZM55.4308 44.3975C55.4308 46.5971 55.5457 53.7081 61.5525 53.7258V53.7346C67.5593 53.7523 67.9038 46.7473 67.6211 43.5407C67.3384 40.2723 65.5806 34.4245 60.1568 34.4157C57.171 34.4157 55.4662 36.4739 55.4662 36.4739C55.4662 36.4739 55.4308 42.198 55.4308 44.3975ZM55.475 34.7248C57.2329 31.5448 60.2628 29.6544 63.8138 29.6544V29.6456C69.909 29.6632 74.2462 34.9722 74.2286 42.3482C74.2109 50.2542 68.7871 55.7575 61.208 55.7398C58.6639 55.731 56.058 55.0508 54.1058 53.4961L49.2209 55.7133L48.9558 55.5543L49.0265 25.9708L47.4453 22.1989V21.8809L55.1923 19.7432L55.5103 19.9022L55.475 34.7248ZM85.1727 23.8682C85.1727 26.1119 83.3442 27.9316 81.1005 27.9228C78.8568 27.9139 77.0459 26.0942 77.0459 23.8505C77.0459 21.6068 78.8744 19.7871 81.1182 19.7959C83.3619 19.8048 85.1727 21.6245 85.1727 23.8682ZM44.4412 35.8023L46.4111 30.6611V30.6523C45.8281 30.0693 44.7151 29.6895 43.5491 29.6895C40.952 29.6895 38.2401 31.8007 36.4911 35.1927V31.094L36.1731 30.935L28.4261 33.0904V33.4084L30.0073 37.1803L29.9719 50.9871L28.373 54.9092V55.2272L38.6111 55.2537V54.9357L36.4469 51.0048L36.4734 40.855C36.4822 36.3764 38.6288 34.9454 41.3672 34.9454C42.3742 34.9454 43.3282 35.2192 44.1232 35.8023H44.4412ZM14.9681 33.454C13.9155 32.5096 12.7558 31.9621 11.5722 31.9596C8.60413 31.9596 6.84625 34.8658 6.82859 39.7949C6.81343 45.7608 9.64757 51.4925 13.1371 53.004C13.6808 53.2256 14.2396 53.3444 14.805 53.3456C17.6759 53.3456 19.4338 50.4306 19.4515 45.5898C19.4639 40.6444 17.5489 35.8567 14.9681 33.454ZM8.84875 55.0743C10.1214 55.4269 11.5114 55.6124 13.0032 55.6157C20.9534 55.6423 26.1652 50.616 26.1829 42.763C26.191 39.1258 25.1514 36.0685 23.2376 33.8315C21.016 31.1682 17.5819 29.6332 13.215 29.6188C5.18533 29.5923 0.0177144 34.6892 4.73333e-05 42.5599C-0.0144057 49.0493 3.28177 53.6173 8.84875 55.0743ZM76.5518 55.0327L78.1506 51.1106L78.186 37.2773L76.6048 33.5142V33.1962L76.6575 33.1818V33.0903L84.4222 30.9702L84.7402 31.1292L84.6872 51.0665L86.2772 55.0063V55.3243L86.198 55.3241V55.3684L76.5518 55.3507V55.0327ZM99.3334 51.3139C94.1569 51.7732 93.2206 47.3476 94.8018 45.1392C95.5438 44.1057 97.3812 42.7012 103.874 41.4115V43.9644C103.873 44.0141 103.874 44.0826 103.875 44.1677L103.875 44.1685C103.894 45.5055 103.967 50.907 99.3422 51.3139H99.3334ZM103.714 38.7262L103.714 38.7264C103.73 38.779 103.742 38.817 103.751 38.8555C103.776 38.956 103.786 39.0601 103.823 39.4353L103.823 39.4354L103.83 39.5034C93.4414 41.9857 88.6095 44.1587 88.5918 49.9977C88.583 53.6017 91.5952 56.0486 95.5261 56.0575C99.1832 56.0663 102.372 53.9551 103.918 51.199C104.227 54.4851 105.711 55.978 108.043 55.9868C110.64 55.9868 112.928 54.1406 113.626 51.2255L113.308 51.0135C112.99 51.2255 112.619 51.3315 112.142 51.3315C110.817 51.3315 110.34 50.2097 110.349 48.0896L110.366 39.8126C110.384 33.9206 107.054 29.7247 100.791 29.707C95.9148 29.6982 91.6129 32.9225 90.1112 37.3746L90.809 37.7986C92.6729 35.8905 94.9961 34.4153 97.9642 34.4242C100.508 34.4242 102.831 35.5548 103.609 38.3727V38.3639C103.658 38.5448 103.69 38.6506 103.714 38.7262Z" fill="#E9E9E9"/>
</svg>
